# xmcd
#
# Track frame offsets: 
#        150
#        22475
#        47205
#        61160
#        84392
#        99560
#        118492
#        143237
#        163247
#        180700
#        209442
#        230037
#        254747
#
# Disc length: 3633 seconds
#
# Revision: 6
# Processed by: cddbd v1.5.2PL0 Copyright (c) Steve Scherf et al.
# Submitted via: ExactAudioCopy v1.0b3
#
DISCID=cc0e2f0d
DTITLE=Mark Knopfler - Sailing to Philadelphia
DYEAR=2000
DGENRE=Rock
TTITLE0=What It Is
TTITLE1=Sailing to Philadelphia (feat. James Taylor)
TTITLE2=Who's Your Baby Now
TTITLE3=Baloney Again
TTITLE4=The Last Laugh (feat. Van Morrison)
TTITLE5=Do America
TTITLE6=El Macho
TTITLE7=Prairie Wedding
TTITLE8=Wanderlust
TTITLE9=Speedway at Nazareth
TTITLE10=Junkie Doll
TTITLE11=Silvertown Blues
TTITLE12=Sands of Nevada
EXTD=YEAR: 2000 ID3G: 1
EXTT0=
EXTT1=
EXTT2=
EXTT3=
EXTT4=
EXTT5=
EXTT6=
EXTT7=
EXTT8=
EXTT9=
EXTT10=
EXTT11=
EXTT12=
PLAYORDER=
